<?xml version="1.0" encoding="utf-8"?>
<svg viewBox="0 0 1000 200" xmlns="http://www.w3.org/2000/svg" xmlns:xlink="http://www.w3.org/1999/xlink" xmlns:bx="https://boxy-svg.com">
  <defs>
    <linearGradient id="gradient-1" bx:pinned="true">
      <stop offset="0" style=""/>
      <stop offset="0.75" style="stop-color: rgb(6, 31, 40);"/>
    </linearGradient>
    <radialGradient id="gradient-1-0" gradientUnits="userSpaceOnUse" cx="250" cy="100" r="250" gradientTransform="matrix(2, 0, 0, 1, 0, 0)" xlink:href="#gradient-1"/>
    <style bx:fonts="Inconsolata">@import url(https://fonts.googleapis.com/css2?family=Inconsolata%3Aital%2Cwght%400%2C200%3B0%2C300%3B0%2C400%3B0%2C500%3B0%2C600%3B0%2C700%3B0%2C800%3B0%2C900&amp;display=swap);</style>
  </defs>
  <rect width="1000" height="200" style="fill: url(#gradient-1-0);"/>
  <g transform="matrix(1, 0, 0, 1, 214.857681, 0.573574)">
    <text style="fill: rgba(35, 159, 200, 0.5); font-family: Inconsolata; font-size: 75px; font-weight: 500; white-space: pre;" transform="matrix(0.999988, 0, 0, 1, 48.019165, 3.138812)" x="70.024" y="121.352" bx:origin="0.638806 0.556968">rha  ody</text>
    <g>
      <path d="M 433.148 104.807 L 433.148 125.601 C 433.148 126.722 433.057 127.784 432.874 128.787 C 432.691 129.791 432.347 130.663 431.839 131.407 C 431.331 132.15 430.639 132.743 429.766 133.185 C 428.892 133.629 427.753 133.85 426.346 133.85 C 425.955 133.85 425.564 133.824 425.173 133.772 C 424.782 133.719 424.469 133.667 424.235 133.615 L 424.626 129.628 C 424.834 129.68 425.055 129.719 425.29 129.745 C 425.525 129.77 425.732 129.784 425.916 129.784 C 426.463 129.784 426.906 129.68 427.245 129.471 C 427.583 129.262 427.844 128.976 428.027 128.611 C 428.209 128.246 428.326 127.823 428.379 127.341 C 428.431 126.858 428.457 126.344 428.457 125.797 L 428.457 104.807 L 433.148 104.807 Z" style="fill: rgb(35, 159, 200);"/>
      <path d="M 449.137 110.707 C 448.719 110.16 448.147 109.684 447.417 109.28 C 446.687 108.877 445.892 108.674 445.032 108.674 C 444.276 108.674 443.586 108.831 442.96 109.144 C 442.334 109.456 442.023 109.977 442.023 110.707 C 442.023 111.436 442.367 111.952 443.057 112.251 C 443.748 112.551 444.759 112.857 446.088 113.17 C 446.791 113.327 447.501 113.535 448.218 113.796 C 448.935 114.056 449.587 114.401 450.173 114.831 C 450.759 115.261 451.235 115.796 451.6 116.434 C 451.964 117.073 452.147 117.848 452.147 118.76 C 452.147 119.908 451.932 120.879 451.502 121.673 C 451.072 122.468 450.499 123.113 449.781 123.608 C 449.064 124.103 448.231 124.462 447.28 124.683 C 446.328 124.905 445.345 125.015 444.328 125.015 C 442.868 125.015 441.448 124.748 440.067 124.214 C 438.685 123.68 437.538 122.918 436.626 121.928 L 439.715 119.035 C 440.236 119.712 440.914 120.273 441.748 120.715 C 442.582 121.159 443.507 121.38 444.524 121.38 C 444.862 121.38 445.208 121.341 445.56 121.263 C 445.912 121.185 446.238 121.061 446.537 120.892 C 446.837 120.722 447.078 120.495 447.261 120.208 C 447.442 119.92 447.534 119.569 447.534 119.151 C 447.534 118.37 447.175 117.81 446.459 117.471 C 445.742 117.132 444.667 116.793 443.234 116.454 C 442.53 116.298 441.845 116.096 441.181 115.848 C 440.517 115.6 439.924 115.275 439.402 114.871 C 438.881 114.467 438.464 113.965 438.151 113.365 C 437.839 112.766 437.682 112.023 437.682 111.137 C 437.682 110.095 437.897 109.196 438.327 108.44 C 438.757 107.684 439.324 107.066 440.028 106.582 C 440.731 106.1 441.526 105.742 442.412 105.508 C 443.298 105.273 444.211 105.156 445.149 105.156 C 446.503 105.156 447.827 105.391 449.116 105.859 C 450.406 106.329 451.429 107.046 452.186 108.01 L 449.137 110.707 Z" style="fill: rgb(35, 159, 200);"/>
      <g transform="matrix(0.32744, 0, 0, 0.32744, 367.152863, 96.655983)">
        <path d="M153.559,72.816l8.533-2.576l1.676,5.156l-8.498,2.898l5.275,7.48L156.098,89l-5.553-7.348l-5.408,7.154 l-4.319-3.289l5.275-7.223l-8.563-3.09l1.677-5.16l8.599,2.771v-8.895h5.754V72.816z" style="fill: rgb(35, 159, 200);"/>
      </g>
    </g>
    <g>
      <path d="M 241.997 91.028 L 241.997 95.487 L 242.196 95.487 C 242.596 94.867 243.117 94.233 243.761 93.591 C 244.403 92.948 245.192 92.37 246.125 91.86 C 247.056 91.352 248.11 90.928 249.287 90.596 C 250.461 90.263 251.782 90.095 253.246 90.095 C 255.51 90.095 257.594 90.529 259.504 91.394 C 261.409 92.261 263.053 93.448 264.429 94.956 C 265.803 96.465 266.867 98.239 267.622 100.281 C 268.378 102.323 268.756 104.518 268.756 106.87 C 268.756 109.222 268.388 111.43 267.656 113.493 C 266.925 115.555 265.88 117.352 264.527 118.883 C 263.174 120.413 261.533 121.636 259.602 122.545 C 257.672 123.453 255.486 123.908 253.047 123.908 C 250.783 123.908 248.708 123.442 246.822 122.511 C 244.936 121.579 243.483 120.314 242.465 118.717 L 242.331 118.717 L 242.331 138.95 L 234.344 138.95 L 234.344 91.028 L 241.997 91.028 Z M 260.634 106.869 C 260.634 105.627 260.445 104.396 260.068 103.175 C 259.69 101.954 259.126 100.856 258.372 99.88 C 257.615 98.905 256.662 98.118 255.51 97.517 C 254.355 96.917 253.001 96.619 251.449 96.619 C 249.985 96.619 248.676 96.929 247.521 97.551 C 246.367 98.172 245.38 98.972 244.56 99.946 C 243.739 100.923 243.118 102.032 242.696 103.275 C 242.274 104.518 242.064 105.761 242.064 107.002 C 242.064 108.245 242.274 109.477 242.696 110.696 C 243.118 111.918 243.739 113.016 244.56 113.992 C 245.381 114.967 246.367 115.756 247.521 116.353 C 248.676 116.955 249.985 117.252 251.449 117.252 C 253.001 117.252 254.355 116.944 255.51 116.321 C 256.661 115.7 257.615 114.901 258.372 113.924 C 259.126 112.949 259.69 111.84 260.068 110.596 C 260.445 109.355 260.634 108.113 260.634 106.869 Z" style="fill: rgb(35, 159, 200);"/>
      <g transform="matrix(0.557495, 0, 0, 0.557495, 232.935715, 75.62439)">
        <path d="M124.086,45.836c-1.473-3.301-3.521-6.088-6.148-8.357c-2.626-2.268-5.711-4-9.252-5.193 c-3.543-1.193-7.384-1.791-11.521-1.791c-1.513,0-3.204,0.082-5.074,0.238c-1.871,0.162-3.482,0.439-4.835,0.838l0.835-18.268 h34.504V0.41H74.481l-1.433,46.201c1.271-0.635,2.725-1.232,4.357-1.791c1.631-0.555,3.302-1.053,5.014-1.49 c1.711-0.438,3.463-0.775,5.254-1.016c1.791-0.238,3.481-0.357,5.074-0.357c2.307,0,4.576,0.258,6.805,0.775 c2.228,0.518,4.238,1.434,6.029,2.746s3.242,3.045,4.358,5.193c1.113,2.148,1.671,4.855,1.671,8.119 c0,2.547-0.418,4.836-1.254,6.865c-0.835,2.027-1.97,3.721-3.401,5.072c-1.434,1.355-3.104,2.389-5.016,3.104 c-1.91,0.719-3.939,1.076-6.089,1.076c-3.819,0-7.124-1.016-9.909-3.045c-2.787-2.029-4.775-4.715-5.97-8.059l-0.159,0.059 l-10.368,9.715c2.097,3.42,4.8,6.281,8.14,8.553c4.854,3.301,10.823,4.955,17.909,4.955c4.218,0,8.197-0.678,11.938-2.029 c3.74-1.352,7.004-3.303,9.79-5.852c2.785-2.545,4.994-5.67,6.627-9.371c1.63-3.701,2.446-7.898,2.446-12.596 C126.295,52.939,125.559,49.141,124.086,45.836z" style="fill: rgb(35, 159, 200);"/>
      </g>
    </g>
  </g>
</svg>