<?xml version="1.0" encoding="utf-8"?>
<svg viewBox="0 0 600 200" xmlns="http://www.w3.org/2000/svg" xmlns:xlink="http://www.w3.org/1999/xlink" xmlns:bx="https://boxy-svg.com">
  <defs>
    <linearGradient id="gradient-1" bx:pinned="true">
      <stop offset="0" style=""/>
      <stop offset="0.719" style="stop-color: rgb(33, 3, 11);"/>
    </linearGradient>
    <radialGradient id="gradient-1-0" gradientUnits="userSpaceOnUse" cx="250" cy="100" r="250" gradientTransform="matrix(1.2, 0, 0, 1, 0, 0)" xlink:href="#gradient-1"/>
    <style bx:fonts="Inconsolata">@import url(https://fonts.googleapis.com/css2?family=Inconsolata%3Aital%2Cwght%400%2C200%3B0%2C300%3B0%2C400%3B0%2C500%3B0%2C600%3B0%2C700%3B0%2C800%3B0%2C900&amp;display=swap);</style>
  </defs>
  <rect width="600" height="200" style="fill: url(#gradient-1-0);"/>
  <g transform="matrix(1, 0, 0, 1, 14.957687, 0.449461)">
    <text style="fill: rgb(132, 11, 45); font-family: Inconsolata; font-size: 75px; font-weight: 500; white-space: pre;" transform="matrix(0.999988, 0, 0, 1, 48.019165, 3.138812)" x="70.024" y="121.352" bx:origin="0.638806 0.556968">rha  ody</text>
    <g>
      <path d="M 433.148 104.807 L 433.148 125.601 C 433.148 126.722 433.057 127.784 432.874 128.787 C 432.691 129.791 432.347 130.663 431.839 131.407 C 431.331 132.15 430.639 132.743 429.766 133.185 C 428.892 133.629 427.753 133.85 426.346 133.85 C 425.955 133.85 425.564 133.824 425.173 133.772 C 424.782 133.719 424.469 133.667 424.235 133.615 L 424.626 129.628 C 424.834 129.68 425.055 129.719 425.29 129.745 C 425.525 129.77 425.732 129.784 425.916 129.784 C 426.463 129.784 426.906 129.68 427.245 129.471 C 427.583 129.262 427.844 128.976 428.027 128.611 C 428.209 128.246 428.326 127.823 428.379 127.341 C 428.431 126.858 428.457 126.344 428.457 125.797 L 428.457 104.807 L 433.148 104.807 Z" style="fill: rgb(237, 34, 93);"/>
      <path d="M 449.137 110.707 C 448.719 110.16 448.147 109.684 447.417 109.28 C 446.687 108.877 445.892 108.674 445.032 108.674 C 444.276 108.674 443.586 108.831 442.96 109.144 C 442.334 109.456 442.023 109.977 442.023 110.707 C 442.023 111.436 442.367 111.952 443.057 112.251 C 443.748 112.551 444.759 112.857 446.088 113.17 C 446.791 113.327 447.501 113.535 448.218 113.796 C 448.935 114.056 449.587 114.401 450.173 114.831 C 450.759 115.261 451.235 115.796 451.6 116.434 C 451.964 117.073 452.147 117.848 452.147 118.76 C 452.147 119.908 451.932 120.879 451.502 121.673 C 451.072 122.468 450.499 123.113 449.781 123.608 C 449.064 124.103 448.231 124.462 447.28 124.683 C 446.328 124.905 445.345 125.015 444.328 125.015 C 442.868 125.015 441.448 124.748 440.067 124.214 C 438.685 123.68 437.538 122.918 436.626 121.928 L 439.715 119.035 C 440.236 119.712 440.914 120.273 441.748 120.715 C 442.582 121.159 443.507 121.38 444.524 121.38 C 444.862 121.38 445.208 121.341 445.56 121.263 C 445.912 121.185 446.238 121.061 446.537 120.892 C 446.837 120.722 447.078 120.495 447.261 120.208 C 447.442 119.92 447.534 119.569 447.534 119.151 C 447.534 118.37 447.175 117.81 446.459 117.471 C 445.742 117.132 444.667 116.793 443.234 116.454 C 442.53 116.298 441.845 116.096 441.181 115.848 C 440.517 115.6 439.924 115.275 439.402 114.871 C 438.881 114.467 438.464 113.965 438.151 113.365 C 437.839 112.766 437.682 112.023 437.682 111.137 C 437.682 110.095 437.897 109.196 438.327 108.44 C 438.757 107.684 439.324 107.066 440.028 106.582 C 440.731 106.1 441.526 105.742 442.412 105.508 C 443.298 105.273 444.211 105.156 445.149 105.156 C 446.503 105.156 447.827 105.391 449.116 105.859 C 450.406 106.329 451.429 107.046 452.186 108.01 L 449.137 110.707 Z" style="fill: rgb(237, 34, 93);"/>
      <g transform="matrix(0.32744, 0, 0, 0.32744, 367.152863, 96.655983)">
        <path d="M153.559,72.816l8.533-2.576l1.676,5.156l-8.498,2.898l5.275,7.48L156.098,89l-5.553-7.348l-5.408,7.154 l-4.319-3.289l5.275-7.223l-8.563-3.09l1.677-5.16l8.599,2.771v-8.895h5.754V72.816z" style="fill: rgb(237, 34, 93);"/>
      </g>
    </g>
    <g>
      <path d="M 241.997 91.028 L 241.997 95.487 L 242.196 95.487 C 242.596 94.867 243.117 94.233 243.761 93.591 C 244.403 92.948 245.192 92.37 246.125 91.86 C 247.056 91.352 248.11 90.928 249.287 90.596 C 250.461 90.263 251.782 90.095 253.246 90.095 C 255.51 90.095 257.594 90.529 259.504 91.394 C 261.409 92.261 263.053 93.448 264.429 94.956 C 265.803 96.465 266.867 98.239 267.622 100.281 C 268.378 102.323 268.756 104.518 268.756 106.87 C 268.756 109.222 268.388 111.43 267.656 113.493 C 266.925 115.555 265.88 117.352 264.527 118.883 C 263.174 120.413 261.533 121.636 259.602 122.545 C 257.672 123.453 255.486 123.908 253.047 123.908 C 250.783 123.908 248.708 123.442 246.822 122.511 C 244.936 121.579 243.483 120.314 242.465 118.717 L 242.331 118.717 L 242.331 138.95 L 234.344 138.95 L 234.344 91.028 L 241.997 91.028 Z M 260.634 106.869 C 260.634 105.627 260.445 104.396 260.068 103.175 C 259.69 101.954 259.126 100.856 258.372 99.88 C 257.615 98.905 256.662 98.118 255.51 97.517 C 254.355 96.917 253.001 96.619 251.449 96.619 C 249.985 96.619 248.676 96.929 247.521 97.551 C 246.367 98.172 245.38 98.972 244.56 99.946 C 243.739 100.923 243.118 102.032 242.696 103.275 C 242.274 104.518 242.064 105.761 242.064 107.002 C 242.064 108.245 242.274 109.477 242.696 110.696 C 243.118 111.918 243.739 113.016 244.56 113.992 C 245.381 114.967 246.367 115.756 247.521 116.353 C 248.676 116.955 249.985 117.252 251.449 117.252 C 253.001 117.252 254.355 116.944 255.51 116.321 C 256.661 115.7 257.615 114.901 258.372 113.924 C 259.126 112.949 259.69 111.84 260.068 110.596 C 260.445 109.355 260.634 108.113 260.634 106.869 Z" style="fill: rgb(237, 34, 93);"/>
      <path d="M 302.113 101.178 C 301.292 99.337 300.15 97.784 298.686 96.519 C 297.222 95.254 295.502 94.289 293.528 93.624 C 291.552 92.959 289.411 92.625 287.105 92.625 C 286.261 92.625 285.319 92.671 284.276 92.758 C 283.233 92.848 282.335 93.003 281.581 93.225 L 282.046 83.041 L 301.282 83.041 L 301.282 75.853 L 274.459 75.853 L 273.66 101.61 C 274.368 101.256 275.179 100.923 276.089 100.611 C 276.998 100.302 277.929 100.024 278.884 99.781 C 279.838 99.536 280.815 99.349 281.813 99.214 C 282.811 99.082 283.754 99.015 284.642 99.015 C 285.928 99.015 287.193 99.159 288.435 99.447 C 289.678 99.736 290.798 100.247 291.797 100.978 C 292.795 101.71 293.604 102.676 294.226 103.873 C 294.847 105.071 295.158 106.58 295.158 108.4 C 295.158 109.819 294.925 111.096 294.459 112.227 C 293.993 113.357 293.36 114.301 292.563 115.054 C 291.763 115.81 290.832 116.386 289.766 116.785 C 288.701 117.186 287.57 117.385 286.372 117.385 C 284.243 117.385 282.4 116.818 280.847 115.687 C 279.294 114.556 278.185 113.059 277.519 111.194 L 277.431 111.227 L 271.65 116.643 C 272.819 118.55 274.326 120.145 276.188 121.411 C 278.895 123.252 282.222 124.174 286.173 124.174 C 288.524 124.174 290.742 123.796 292.828 123.043 C 294.913 122.289 296.733 121.201 298.286 119.78 C 299.838 118.361 301.07 116.619 301.98 114.556 C 302.889 112.493 303.344 110.153 303.344 107.534 C 303.345 105.138 302.934 103.02 302.113 101.178 Z" style="fill: rgb(237, 34, 93);"/>
    </g>
  </g>
</svg>